<svg preserveAspectRatio="none" width="100%" height="100%" overflow="visible" style="display: block;" viewBox="0 0 16 16" fill="none" xmlns="http://www.w3.org/2000/svg">
<g id="Elements_x2F_Logo_x2F_Color">
<path id="Fill-1" fill-rule="evenodd" clip-rule="evenodd" d="M0 3.8835H16V0H0V3.8835Z" fill="var(--fill-0, #FFCC31)"/>
<path id="Fill-2" fill-rule="evenodd" clip-rule="evenodd" d="M0 16H16V5.82528H0V16Z" fill="var(--fill-0, #008C4F)"/>
<path id="Fill-5" fill-rule="evenodd" clip-rule="evenodd" d="M16 5.82527V3.88352H0V5.82527H3.06053L1.35593 11.7282H4.84262C6.35351 11.7282 6.6247 11.3787 6.93462 11.1068C7.36077 10.7573 7.55448 9.94178 7.39952 9.35925C7.28329 8.9709 6.89588 8.69906 6.85714 8.69906C7.32203 8.46605 7.59322 8.00003 7.63196 7.92236C7.82567 7.57284 7.94189 6.91265 7.51574 6.36896C7.16707 5.94177 6.43099 5.78644 5.92736 5.78644H9.64649L7.94189 11.7282H9.68523L10.3051 9.47576H11.3123C12.0484 9.47576 11.9709 9.94178 11.9709 10.1359L12.0097 11.8059H13.6368C13.6368 11.8059 13.5593 9.94177 13.5593 9.82527C13.5206 9.35925 13.2107 9.12624 12.9395 9.12624C13.4431 8.9709 13.908 8.50488 14.063 8.23304C14.2567 7.88352 14.4116 7.33983 14.2179 6.79614C13.908 6.01945 13.1719 5.86411 12.6295 5.86411H16V5.82527ZM11.0024 7.02915H12.2809C12.862 7.02915 12.9007 7.4175 12.9007 7.53401C12.9007 7.80585 12.6683 8.34954 11.9322 8.34954H10.6538C10.6538 8.34954 11.0024 7.06799 11.0024 7.02915ZM3.79661 9.24275H4.95884C5.53995 9.24275 5.53995 9.39809 5.61743 9.51459C5.69492 9.6311 5.65617 9.90294 5.61743 10.0194C5.53995 10.1359 5.42373 10.5243 4.72639 10.5243H3.44794L3.79661 9.24275ZM4.45521 7.02915H5.7724C6.04358 7.02915 6.27603 7.18449 6.27603 7.49517C6.27603 7.88352 5.9661 8.15537 5.53995 8.15537H4.10654L4.45521 7.02915Z" fill="var(--fill-0, white)"/>
</g>
</svg>
