<svg width="747" height="246" viewBox="0 0 747 246" fill="none" xmlns="http://www.w3.org/2000/svg">
<path d="M339.312 86.409C348.553 86.409 356.042 78.9178 356.042 69.6791C356.042 60.4405 348.551 52.9493 339.312 52.9493C330.074 52.9493 322.58 60.4405 322.58 69.6791C322.58 78.9178 330.072 86.409 339.312 86.409Z" fill="#F0F0F0"/>
<path d="M546.246 86.409C555.487 86.409 562.976 78.9178 562.976 69.6791C562.976 60.4405 555.485 52.9493 546.246 52.9493C537.007 52.9493 529.516 60.4405 529.516 69.6791C529.516 78.9178 537.007 86.409 546.246 86.409Z" fill="#F0F0F0"/>
<path d="M730.268 210.361C721.027 210.361 713.538 217.852 713.538 227.091C713.538 236.329 721.029 243.82 730.268 243.82C739.507 243.82 747 236.329 747 227.091C747 217.852 739.509 210.361 730.268 210.361Z" fill="#F0F0F0"/>
<path d="M691.679 155.741C685.994 154.272 680.199 157.688 678.726 163.366C675.531 175.689 670.942 187.83 664.968 199.079C662.366 203.981 659.462 208.83 655.825 213.044C653.676 215.533 648.345 221.309 644.607 220.05C644.499 220.005 644.388 219.963 644.28 219.918C640.205 217.926 642.775 205.197 643.341 201.79C645.288 190.028 648.961 178.538 652.936 167.327C661.697 142.625 672.774 119.747 673.195 118.88C675.763 113.604 673.569 107.246 668.293 104.674C663.019 102.101 656.656 104.291 654.078 109.576C654.057 109.616 653.74 110.266 653.172 111.406C652.826 110.811 652.503 110.209 652.105 109.627C645.802 100.384 635.024 95.6985 620.072 95.6985C588.502 95.6985 560.639 138.643 536.055 176.531C531.467 183.604 526.924 190.708 522.086 197.615C517.431 204.258 512.32 212.763 505.922 217.835C504.642 215.157 505.9 209.834 506.253 206.913C506.893 201.632 507.852 196.392 508.925 191.184C511.766 177.409 515.479 163.811 519.599 150.367C522.358 141.369 525.332 132.434 528.527 123.582C530.372 118.468 528.06 112.783 523.168 110.411C518.268 108.032 512.38 109.739 509.506 114.354C509.346 114.609 493.407 140.151 474.696 165.826C456.208 191.197 444.306 203.954 437.098 210.361C439.989 202.563 444.353 192.71 447.695 185.16C463.325 149.853 472.181 127.436 463.37 113.902C461.291 110.711 456.304 105.356 446.228 105.356C440.847 105.356 427.015 105.354 400.243 132.347C403.338 120.034 401.999 113.982 399.578 109.72C396.74 104.718 391.661 101.851 385.647 101.851C367.768 101.851 349.558 126.363 321.334 166.357C310.065 182.322 291.869 208.107 283.16 214.242C283.004 209.319 284.618 196.201 298.046 165.182C307.946 142.315 319.172 121.644 319.283 121.437C322.002 116.44 320.303 110.186 315.431 107.25C310.559 104.319 304.234 105.741 301.088 110.483C300.908 110.755 282.785 138.018 260.656 164.844C250.86 176.718 240.801 188.27 229.647 198.901C225.885 202.487 222.014 205.992 217.775 209.015C214.102 211.634 208.993 215.248 204.408 215.786C199.166 216.4 195.558 200.019 197.565 198.367C234.696 167.79 277.335 126.737 297.625 73.8073C299.87 67.9508 306.839 41.2361 297.139 27.1316C293.374 21.6556 287.611 18.6413 280.91 18.6413C231.639 18.6413 190.284 109.856 180.976 160.917L180.606 162.901C179.062 171.121 177.674 179.601 176.905 187.772C176.803 187.855 176.701 187.936 176.599 188.019C156.825 203.918 120.019 233.51 91.8354 221.759C80.7027 217.116 72.2889 207.729 68.1415 195.325C64.1833 183.482 62.6549 165.141 71.2685 138.31C90.494 144.825 115.846 146.551 143.553 130.33C179.441 109.316 208.169 61.1483 203.83 29.268C201.849 14.7235 193.36 4.75144 179.928 1.19077C141.406 -9.01721 93.0386 48.9315 75.6412 78.5924C69.2469 89.4913 64.0175 99.695 59.7829 109.229C36.6375 94.321 22.4224 70.5782 21.1937 58.1913C20.6155 52.3497 15.4095 48.0918 9.56572 48.6636C3.73684 49.2439 -0.527471 54.4478 0.0528658 60.2895C2.60592 86.022 27.8708 114.735 51.9516 129.316C40.6892 163.018 42.8532 186.688 47.9934 202.064C54.1156 220.375 66.7831 234.337 83.666 241.378C90.9957 244.435 98.4359 245.753 105.853 245.753C132.368 245.751 158.483 228.881 177.53 214.364C178.701 220.216 180.769 225.311 184.056 229.274C188.378 234.482 194.321 237.237 201.243 237.237C221.493 237.237 245.937 214.166 265.599 191.854C259.659 213.078 261.974 222.112 265.231 227.594C268.685 233.406 274.539 236.608 281.72 236.608C297.068 236.608 311.817 216.723 338.712 178.614C349.822 162.873 368.894 135.846 380.029 126.422C375.65 144.5 354.79 186.339 334.14 220.958C331.134 225.996 332.779 232.516 337.815 235.526C342.853 238.538 349.373 236.893 352.388 231.863C352.549 231.591 368.928 204.33 389.47 177.518C424.241 132.132 440.756 126.967 445.692 126.633C446.419 135.546 434.281 162.967 428.267 176.552C414.964 206.605 408.857 221.496 415.374 231.506C418.076 235.66 422.653 238.043 427.925 238.043C437.769 238.043 452.743 231.342 489.073 182.179C481.45 216.319 484.681 227.641 489.13 233.982C492.438 238.691 497.419 241.287 503.16 241.287C516.81 241.287 528.179 227.144 546.165 199.93C545.582 208.909 546.273 218.003 549.549 225.445C554.043 235.66 562.591 241.287 573.617 241.287C582.898 241.287 597.358 236.997 621.441 205.348C620.057 219.487 622.723 226.602 625.52 231.079C629.631 237.66 636.459 241.284 644.741 241.284C678.843 241.284 696.181 180.808 699.312 168.685C700.777 163.005 697.361 157.212 691.679 155.741ZM201.508 166.823L201.9 164.731C206.479 139.611 215.94 115.137 228.051 92.7182C233.771 82.1276 239.874 71.6432 247.478 62.2728C253.513 54.8369 260.201 47.0268 268.957 42.7433C271.802 41.3509 276.986 40.0372 280.808 41.7144C289.805 45.6663 272.443 79.819 265.441 92.0464C258.405 104.333 250.119 115.879 241.065 126.752C228.99 141.252 215.551 154.572 201.46 167.101C201.479 167.008 201.494 166.916 201.508 166.823ZM93.9888 89.3467C104.11 72.0939 119.774 53.2404 134.874 40.1414C151.096 26.0709 165.542 19.3683 174.492 21.7385C178.016 22.6717 181.758 24.6381 182.776 32.1357C186.311 58.0935 158.338 97.042 132.822 111.984C112.285 124.01 93.434 123.064 78.9298 118.415C82.888 109.491 87.8453 99.8183 93.9867 89.3488L93.9888 89.3467ZM622.059 166.914C589.514 218.536 575.148 220.027 573.615 220.027C571.383 220.027 570.188 219.574 569.004 216.885C565.333 208.537 567.287 197.593 568.97 189.024C571.372 176.788 575.418 164.752 580.858 153.532C585.768 143.405 592.551 133.216 601.14 125.844C607.927 120.017 616.836 116.059 625.714 117.162C634.818 118.296 642.456 129.694 638.33 138.497C637.216 140.876 626.39 160.044 622.059 166.914Z" fill="#F0F0F0"/>
</svg>
