<svg width="787" height="259" viewBox="0 0 787 259" fill="none" xmlns="http://www.w3.org/2000/svg">
<path d="M357.482 91.0358C367.217 91.0358 375.107 83.1435 375.107 73.4101C375.107 63.6768 367.215 55.7844 357.482 55.7844C347.748 55.7844 339.854 63.6768 339.854 73.4101C339.854 83.1435 347.746 91.0358 357.482 91.0358Z" fill="#385664"/>
<path d="M575.496 91.0358C585.232 91.0358 593.122 83.1435 593.122 73.4101C593.122 63.6768 585.229 55.7844 575.496 55.7844C565.763 55.7844 557.87 63.6768 557.87 73.4101C557.87 83.1435 565.763 91.0358 575.496 91.0358Z" fill="#385664"/>
<path d="M769.372 222.309C759.636 222.309 751.746 230.201 751.746 239.934C751.746 249.668 759.639 257.56 769.372 257.56C779.105 257.56 787 249.668 787 239.934C787 230.201 779.108 222.309 769.372 222.309Z" fill="#385664"/>
<path d="M728.716 164.081C722.727 162.533 716.622 166.132 715.07 172.114C711.704 185.097 706.869 197.887 700.576 209.739C697.834 214.904 694.775 220.013 690.943 224.451C688.679 227.074 683.062 233.159 679.125 231.833C679.01 231.786 678.894 231.741 678.78 231.694C674.486 229.596 677.194 216.185 677.79 212.595C679.841 200.203 683.711 188.098 687.899 176.286C697.129 150.262 708.799 126.16 709.243 125.246C711.948 119.687 709.637 112.988 704.078 110.279C698.522 107.569 691.819 109.875 689.102 115.443C689.08 115.486 688.746 116.171 688.148 117.371C687.783 116.744 687.442 116.11 687.024 115.497C680.383 105.759 669.028 100.823 653.275 100.823C620.015 100.823 590.66 146.067 564.759 185.984C559.926 193.435 555.14 200.92 550.043 208.196C545.138 215.195 539.754 224.156 533.013 229.499C531.664 226.678 532.99 221.07 533.362 217.992C534.036 212.429 535.046 206.909 536.177 201.422C539.169 186.909 543.082 172.582 547.422 158.419C550.329 148.939 553.462 139.526 556.829 130.2C558.773 124.811 556.336 118.823 551.182 116.323C546.02 113.817 539.816 115.616 536.789 120.478C536.621 120.746 519.828 147.655 500.115 174.705C480.637 201.435 468.098 214.875 460.503 221.625C463.549 213.41 468.147 203.03 471.668 195.075C488.135 157.877 497.466 134.26 488.182 120.001C485.992 116.639 480.738 110.997 470.122 110.997C464.454 110.997 449.881 110.995 421.675 139.434C424.936 126.462 423.525 120.086 420.974 115.595C417.984 110.326 412.634 107.304 406.298 107.304C387.461 107.304 368.276 133.129 338.541 175.265C326.669 192.085 307.498 219.251 298.322 225.715C298.159 220.528 299.858 206.707 314.006 174.027C324.436 149.935 336.263 128.157 336.38 127.94C339.244 122.675 337.455 116.086 332.321 112.993C327.188 109.905 320.525 111.403 317.211 116.399C317.02 116.686 297.928 145.409 274.614 173.671C264.293 186.181 253.696 198.351 241.944 209.551C237.98 213.33 233.902 217.023 229.436 220.207C225.566 222.967 220.184 226.774 215.354 227.341C209.831 227.988 206.03 210.729 208.144 208.989C247.263 176.775 292.185 133.523 313.562 77.7595C315.928 71.5894 323.269 43.4442 313.05 28.5844C309.083 22.8152 303.012 19.6395 295.952 19.6395C244.043 19.6395 200.474 115.739 190.666 169.534L190.277 171.624C188.651 180.284 187.188 189.218 186.378 197.827C186.27 197.914 186.163 197.999 186.055 198.087C165.222 214.837 126.446 246.014 96.7529 233.634C85.0241 228.743 76.1598 218.852 71.7903 205.784C67.6201 193.307 66.0099 173.984 75.0848 145.716C95.3398 152.58 122.049 154.399 151.24 137.308C189.049 115.17 219.315 64.4226 214.744 30.8352C212.657 15.5119 203.714 5.00587 189.562 1.25453C148.978 -9.50006 98.0206 51.5516 79.6916 82.8008C72.9549 94.2833 67.4454 105.033 62.9842 115.078C38.5993 99.3717 23.6231 74.3575 22.3286 61.3073C21.7194 55.1529 16.2346 50.667 10.0779 51.2694C3.93693 51.8808 -0.555716 57.3634 0.0556966 63.5178C2.74546 90.6283 29.3632 120.879 54.7334 136.24C42.868 171.747 45.1479 196.685 50.5633 212.884C57.0134 232.176 70.3592 246.886 88.1461 254.303C95.8683 257.524 103.707 258.912 111.521 258.912C139.456 258.91 166.969 241.136 187.036 225.842C188.27 232.008 190.449 237.376 193.912 241.551C198.465 247.038 204.727 249.94 212.019 249.94C233.353 249.94 259.107 225.634 279.821 202.127C273.563 224.487 276.002 234.006 279.433 239.782C283.073 245.905 289.24 249.277 296.806 249.277C312.976 249.277 328.514 228.328 356.85 188.179C368.554 171.594 388.648 143.12 400.379 133.192C395.765 152.238 373.788 196.318 352.032 232.789C348.865 238.097 350.599 244.966 355.905 248.137C361.212 251.311 368.081 249.578 371.257 244.279C371.427 243.992 388.683 215.271 410.325 187.023C446.958 139.208 464.357 133.765 469.558 133.414C470.324 142.804 457.536 171.693 451.2 186.006C437.184 217.668 430.75 233.356 437.617 243.902C440.463 248.279 445.285 250.789 450.839 250.789C461.211 250.789 476.987 243.73 515.261 191.935C507.23 227.903 510.634 239.831 515.322 246.512C518.807 251.472 524.054 254.207 530.103 254.207C544.484 254.207 556.461 239.307 575.411 210.635C574.797 220.095 575.525 229.676 578.976 237.517C583.711 248.279 592.716 254.207 604.333 254.207C614.111 254.207 629.345 249.687 654.717 216.344C653.259 231.24 656.068 238.736 659.015 243.452C663.346 250.386 670.54 254.205 679.266 254.205C715.193 254.205 733.46 190.49 736.759 177.718C738.302 171.733 734.703 165.63 728.716 164.081ZM212.299 175.756L212.711 173.552C217.535 147.086 227.503 121.302 240.262 97.683C246.289 86.5253 252.719 75.4796 260.73 65.6074C267.088 57.7732 274.134 49.5449 283.359 45.0321C286.356 43.5652 291.818 42.1811 295.845 43.9481C305.323 48.1116 287.032 84.0931 279.655 96.9753C272.242 109.92 263.512 122.084 253.973 133.539C241.252 148.815 227.094 162.849 212.247 176.049C212.267 175.951 212.283 175.854 212.299 175.756ZM99.0217 94.131C109.684 75.9544 126.188 56.0913 142.096 42.2908C159.186 27.4669 174.407 20.4054 183.836 22.9026C187.549 23.8857 191.491 25.9574 192.563 33.8565C196.288 61.2043 166.817 102.238 139.935 117.981C118.298 130.65 98.4371 129.653 83.1563 124.755C87.3264 115.354 92.5492 105.163 99.0194 94.1332L99.0217 94.131ZM655.369 175.852C621.081 230.239 605.945 231.809 604.331 231.809C601.979 231.809 600.72 231.331 599.473 228.498C595.605 219.703 597.663 208.174 599.437 199.146C601.968 186.255 606.23 173.574 611.961 161.754C617.134 151.084 624.281 140.35 633.329 132.583C640.48 126.444 649.866 122.274 659.219 123.436C668.811 124.63 676.858 136.639 672.511 145.913C671.337 148.419 659.931 168.614 655.369 175.852Z" fill="#385664"/>
</svg>
