<svg xmlns="http://www.w3.org/2000/svg" width="96" height="96" fill="none" viewBox="0 0 96 96">
  <path fill="color(display-p3 .9176 .1137 .6196)" d="M37.465 58.55v6.502a6.436 6.436 0 0 1-1.267 3.852 2.586 2.586 0 0 1-.208-.121c-.115-.062-.229-.132-.34-.2a18.934 18.934 0 0 1-.864-.543c-.094-.063-.189-.125-.283-.192a23.198 23.198 0 0 1-1.31-.96c-.011 0-.02-.016-.03-.022-.141-.115-.282-.225-.418-.34-.136-.115-.255-.212-.381-.32-.27-.235-.54-.474-.8-.72-.074-.069-.151-.138-.22-.212-.2-.19-.4-.389-.595-.591-.077-.08-.15-.16-.231-.244a23.57 23.57 0 0 1-1.746-2.071 20.214 20.214 0 0 1-.356-.483c-.15-.22-.311-.445-.46-.672a24.365 24.365 0 0 1-.646-1.038c-.071-.116-.138-.237-.206-.353a6.453 6.453 0 0 1 3.855-1.269l6.506-.003Zm18.639-33.147a10.433 10.433 0 0 0-1.592 5.558v6.5h-6.501a10.544 10.544 0 0 0-10.546 10.544v6.5h-6.501a10.42 10.42 0 0 0-5.56 1.596c-.055-.151-.11-.318-.164-.478-.11-.317-.21-.64-.303-.966a23.975 23.975 0 0 1-.479-1.984 18.362 18.362 0 0 1-.166-.922 21.163 21.163 0 0 1-.148-1.123c-.018-.151-.032-.303-.046-.454l-.009-.103c-.012-.131-.022-.26-.031-.391-.011-.16-.02-.327-.03-.489-.007-.186-.016-.375-.019-.56 0-.206-.009-.415-.009-.62 0-.415.012-.826.032-1.236a23.467 23.467 0 0 1 .243-2.42c.09-.595.203-1.184.337-1.766.091-.386.188-.768.303-1.148a25.702 25.702 0 0 1 .755-2.233c.15-.363.302-.72.453-1.073.15-.354.33-.706.505-1.059a24.715 24.715 0 0 1 1.804-2.966c.111-.151.223-.311.34-.466a24.03 24.03 0 0 1 19.853-9.634c.189 0 .376.012.562.02l.488.029c.132.009.26.021.392.031l.103.01a22.819 22.819 0 0 1 2.01.266 21.544 21.544 0 0 1 .998.197c.165.037.33.073.493.114.164.041.331.082.495.126.494.128.982.273 1.463.437l.322.112c.053.013.103.033.153.05Zm12.803 10.794a6.473 6.473 0 0 1-3.852 1.268h-6.502v-6.501a6.436 6.436 0 0 1 1.27-3.853l.1.058c.475.272.94.56 1.391.863l.232.151c.12.084.24.167.358.251.151.112.311.224.466.34a34.573 34.573 0 0 1 .907.713c.15.122.294.245.44.372a30.908 30.908 0 0 1 .428.382 50.686 50.686 0 0 1 .438.405c.135.129.266.257.396.389.13.131.263.269.395.404l.018.016c.128.138.257.275.382.414.26.286.514.578.756.876.114.136.226.273.338.414l.022.03c.117.151.235.303.35.454.114.151.228.302.338.465.086.117.17.238.25.357l.225.337c.074.114.151.227.224.344.072.116.15.228.213.346.057.088.112.18.166.27.029.044.055.09.08.135.056.101.12.2.171.3Z"/>
  <path fill="color(display-p3 .9176 .1137 .6196)" d="M72.01 48.005a23.934 23.934 0 0 1-2.627 10.928c-.266.52-.545 1.023-.848 1.512a23.817 23.817 0 0 1-2.563 3.473v.007a24.198 24.198 0 0 1-6.008 4.896 23.303 23.303 0 0 1-3.142 1.515 23.974 23.974 0 0 1-8.804 1.663h-.009c-.202 0-.402 0-.605-.01h-.028l-.528-.02-.484-.028a11.56 11.56 0 0 1-.443-.035l-.425-.039-.34-.038-.272-.034a20.26 20.26 0 0 1-1.7-.286 28.498 28.498 0 0 1-1.169-.268l-.563-.151c-.38-.106-.756-.224-1.128-.35a11.973 11.973 0 0 1-.391-.134 10.475 10.475 0 0 0 1.587-5.555v-6.5h6.501a10.544 10.544 0 0 0 10.53-10.547v-2.016H48.34a2.89 2.89 0 0 0-2.892 2.89v1.146h8.743a6.513 6.513 0 0 1-6.18 4.482h-6.5v-6.502a6.502 6.502 0 0 1 6.5-6.5h17.045c1.964.003 3.89-.548 5.554-1.59.03.083.06.167.087.248.025.082.054.151.08.23.113.342.222.691.319 1.043.047.151.089.303.128.466a5.8 5.8 0 0 1 .074.289c.041.15.079.322.115.485.032.132.061.264.086.395.03.131.055.264.078.396.022.131.048.252.07.378.061.343.115.688.16 1.037.02.166.04.331.058.5.018.17.034.322.049.486v.057c.01.14.022.28.03.423.008.144.021.316.029.477.009.186.018.372.02.558.014.208.017.417.017.623ZM30.964 58.55h6.501v6.502a6.437 6.437 0 0 1-1.267 3.852 2.587 2.587 0 0 1-.208-.121c-.115-.062-.229-.132-.34-.2a19.83 19.83 0 0 1-.864-.542c-.094-.064-.189-.126-.283-.192a23.33 23.33 0 0 1-1.31-.96c-.011 0-.02-.017-.03-.023-.141-.115-.282-.225-.418-.34-.136-.115-.255-.212-.381-.32-.27-.235-.54-.474-.8-.72-.074-.069-.151-.138-.22-.212-.2-.19-.4-.389-.595-.591-.077-.08-.15-.16-.231-.244a23.57 23.57 0 0 1-1.746-2.071 20.214 20.214 0 0 1-.356-.483c-.15-.22-.311-.445-.46-.672-.15-.227-.303-.454-.438-.688a11.095 11.095 0 0 1-.208-.35c-.071-.116-.138-.237-.206-.353a6.454 6.454 0 0 1 3.86-1.272Z"/>
  <path fill="color(display-p3 .9176 .1137 .6196)" d="M37.465 48.005v6.5h-6.501a10.42 10.42 0 0 0-5.56 1.596c-.055-.151-.11-.318-.164-.478a22.319 22.319 0 0 1-.782-2.95 18.362 18.362 0 0 1-.166-.922 21.163 21.163 0 0 1-.148-1.123c-.018-.151-.032-.303-.046-.454l-.009-.103c-.012-.131-.022-.26-.031-.391-.011-.16-.02-.327-.03-.489-.007-.186-.016-.375-.019-.56 0-.206-.009-.415-.009-.62 0-.415.012-.826.032-1.236a23.467 23.467 0 0 1 .243-2.42c.09-.595.203-1.184.337-1.766.088-.386.188-.768.303-1.148.051-.192.109-.38.169-.567a22.102 22.102 0 0 1 .585-1.666c.151-.363.302-.72.454-1.073.15-.354.33-.706.505-1.059.174-.352.361-.683.555-1.02.385-.668.8-1.317 1.248-1.946.112-.151.224-.311.34-.466a24.03 24.03 0 0 1 19.854-9.634c.189 0 .376.012.562.02l.488.029c.132.009.26.021.392.031l.103.01a22.819 22.819 0 0 1 2.01.266 21.544 21.544 0 0 1 .998.197c.165.037.33.073.493.114.164.041.331.082.495.126.494.128.982.273 1.463.437l.322.112c.049.013.1.033.151.05a10.433 10.433 0 0 0-1.591 5.559v6.5h-6.502a10.544 10.544 0 0 0-10.544 10.544Zm27.59-10.54h-6.502v-6.501a6.436 6.436 0 0 1 1.27-3.853 22.543 22.543 0 0 1 1.49.918l.233.151c.12.084.24.167.358.251.151.112.311.224.466.34a35.458 35.458 0 0 1 .907.713c.15.122.294.244.44.371a30.908 30.908 0 0 1 .428.383c.137.125.275.251.41.377a19.139 19.139 0 0 1 .425.417c.13.131.262.269.394.404l.018.016c.128.138.257.275.382.414.26.286.514.578.756.876.114.136.226.273.338.414l.022.03.35.454c.114.151.228.302.338.465.086.117.17.238.25.357l.225.337c.074.114.151.227.224.344.072.116.15.228.213.346.057.088.112.18.166.27.029.044.055.09.08.135l.17.303a6.473 6.473 0 0 1-3.851 1.268Z"/>
  <path fill="color(display-p3 .9176 .1137 .6196)" d="M72.01 48.005a23.93 23.93 0 0 1-2.627 10.928 24.774 24.774 0 0 1-1.471 2.486 24.173 24.173 0 0 1-8.973 7.956c-.692.354-1.399.675-2.124.96A23.974 23.974 0 0 1 48.01 72H48c-.202 0-.401 0-.604-.01h-.029l-.527-.02-.484-.028a11.248 11.248 0 0 1-.443-.035l-.425-.039-.34-.038-.272-.034a20.333 20.333 0 0 1-1.7-.286 28.49 28.49 0 0 1-1.169-.268l-.563-.151c-.38-.106-.756-.224-1.128-.35l-.389-.137a10.476 10.476 0 0 0 1.588-5.555v-6.5h6.5a10.544 10.544 0 0 0 10.536-10.544v-2.016H48.339a2.89 2.89 0 0 0-2.892 2.89v1.146h8.743a6.513 6.513 0 0 1-6.18 4.482h-6.5v-6.502a6.502 6.502 0 0 1 6.5-6.5h17.045c1.964.003 3.89-.548 5.554-1.59.032.083.064.167.09.248.025.082.054.151.08.23.113.342.222.691.319 1.043.047.151.089.303.128.466a5.8 5.8 0 0 1 .074.289c.041.15.079.322.115.485.032.132.061.264.086.395.03.131.055.264.078.396.022.131.048.252.07.378.061.343.115.688.16 1.037.02.166.04.331.058.5.018.17.034.322.049.486v.057c.01.14.022.28.03.423.008.144.021.316.029.477.009.186.018.372.02.558.011.208.014.417.014.623Z"/>
</svg>
