<svg xmlns="http://www.w3.org/2000/svg" width="96" height="96" fill="none" viewBox="0 0 96 96">
  <path fill="color(display-p3 .2196 .3373 .3922)" d="M58.494 49.5c8.885-5.313 15.93-17.365 14.78-25.287-.525-3.62-2.663-6.083-6.015-6.937-9.609-2.454-21.517 12.077-25.78 19.496-1.568 2.727-2.847 5.279-3.878 7.66-5.795-3.658-9.388-9.536-9.722-12.618a2.645 2.645 0 1 0-5.261.57c.693 6.402 7.046 13.489 13.074 17.065-2.73 8.417-2.138 14.3-.828 18.115 1.566 4.547 4.75 7.99 8.966 9.709a14.203 14.203 0 0 0 5.532 1.04c5.629-.05 12.396-3.518 15.064-6.008 1.065-.993 1.751-2.298 1.025-3.561l-.069-.12c-.694-1.209-2.372-1.867-3.454-.988-3.42 2.78-10.708 6.506-16.105 4.735-2.85-.936-4.894-3.45-5.953-6.53-1.01-2.937-1.432-7.5.652-14.197 4.797 1.582 11.114 1.954 17.972-2.144Zm-12.43-10.091c2.48-4.319 6.338-9.046 10.066-12.34 4.011-3.537 7.588-5.237 9.82-4.665.882.22 1.816.703 2.088 2.569.936 6.452-5.94 16.207-12.257 19.984-5.085 3.04-9.779 2.843-13.397 1.718.964-2.232 2.175-4.644 3.68-7.266Z"/>
  <path fill="color(display-p3 .2196 .3373 .3922)" d="M69.718 62.325a2.806 2.806 0 1 0 .049 5.613 2.808 2.808 0 0 0-.05-5.615l.001.002Z"/>
</svg>
