<svg xmlns="http://www.w3.org/2000/svg" width="96" height="96" fill="none" viewBox="0 0 96 96">
  <path fill="color(display-p3 .1373 .3765 .6471)" d="M25.833 64.334 20 68.22V76l11.666-7.78-5.833-3.886Zm44.332-32.665 5.832-3.887V20l-11.665 7.782 5.833 3.887ZM47.999 76l27.998-18.668-11.665-7.78L50.33 58.89l5.833 3.89-7.581 5.056-16.333-10.89 26.833-17.888-5.833-3.89L20 57.332 47.999 76Z"/>
  <path fill="color(display-p3 .1373 .3765 .6471)" d="M48.001 20.008 20 38.67l11.666 7.78 14-9.337-5.832-3.888 7.583-5.055L63.75 39.056l-26.833 17.89 5.833 3.89L76 38.67 48.001 20.008Z"/>
</svg>
