<svg xmlns="http://www.w3.org/2000/svg" width="96" height="96" fill="none" viewBox="0 0 96 96">
  <path fill="color(display-p3 .0275 .3569 .9412)" d="M61.039 11h1.567v29.525l-.002 9.9c0 1.479-.01 2.972.014 4.452.002.114-.03.313-.106.396a.396.396 0 0 1-.315.155c-1.746.024-3.504.011-5.249.012-.442 0-2.558.052-2.788-.132-.337-.787.121-3.987-.215-4.261-.071.014-.415.12-.441.122-1.314.076-3.098.038-4.363.038H45.2c-.657 0-1.906.102-2.519-.156-.107-.045-.064-.027-.188-.017-.366.278-.053 1.964-.025 2.49.227 4.252 1.066 8.652 2.39 12.69.544 1.472 1.362 2.915 2.18 4.237 3.777 6.107 9.482 11.053 16.04 13.867.258.11.834.395.923.649-.45.19-2.632-.494-3.184-.665a40.353 40.353 0 0 1-10.861-5.207c-2.715-1.817-4.727-3.62-6.92-6.03a38.794 38.794 0 0 1-9.368-18.533c-.114-.553-.12-1.219-.207-1.787-.1-.646-.416-1.432-.433-2.067-.03-1.133-.025-2.292-.022-3.428.002-.974-.027-2.029.039-2.991.03-.444.331-1.218.393-1.698.075-.58.105-1.151.213-1.724 1.8-9.525 6.877-17.123 14.328-23.093 1.71-1.371 3.466-2.755 5.392-3.814.982-.54 2.086-1.126 3.138-1.51a35.804 35.804 0 0 1 3.746-1.15c.297-.074.599-.055.785-.27ZM44.522 41.908l6.757.007c.492 0 2.52.035 2.917-.052-.124-.178-.127-.132-.133-.35-.03-1.128-.018-2.276-.016-3.404v-6.077l-.002-4.027c-.003-.564-.073-2.009.095-2.46l-.07-.06a31.037 31.037 0 0 0-9.7 13.452c-.24.629-.42 1.242-.607 1.887-.097.334-.417.69-.28 1.038.186.067.806.046 1.04.046Z"/>
</svg>
