<svg xmlns="http://www.w3.org/2000/svg" width="96" height="96" fill="none" viewBox="0 0 96 96">
  <path fill="color(display-p3 0 .4784 1)" d="M60.057 15H36.251c-13.516 0-24.51 10.83-24.51 24.146s10.974 24.126 24.48 24.146l10.983 9.543L55.466 80V63.623h4.572c13.516 0 24.509-10.83 24.509-24.146v-.331C84.547 25.83 73.554 15 60.037 15h.02ZM72.07 39.477c0 6.522-5.393 11.834-12.013 11.834h-4.58v12.283l-6.393-5.556-8.133-7.068h-4.69c-6.62 0-12.013-5.312-12.013-11.834 0-6.521 5.393-11.834 12.013-11.834h23.806c6.62 0 12.013 5.313 12.013 11.834v.332l-.01.01Z"/>
</svg>
