<svg xmlns="http://www.w3.org/2000/svg" width="96" height="96" fill="none" viewBox="0 0 96 96">
  <path fill="color(display-p3 .08 .0933 .12)" d="M37.286 33.828h7.491c6.89 0 10.855 1.368 10.855 6.955 0 4.099-2.725 5.79-5.648 5.99v.965c4.326.081 7.73 1.85 7.73 6.915 0 5.709-4.285 7.519-11.134 7.519h-9.294V33.828Zm7.608 12.182c4.605 0 7.451-.682 7.451-4.703 0-4.383-2.842-4.663-7.45-4.663h-4.326v9.366h4.325Zm1.803 13.346c4.807 0 7.73-.804 7.73-5.267 0-4.14-2.923-5.267-7.73-5.267H40.57v10.534h6.128Z"/>
</svg>
