<svg xmlns="http://www.w3.org/2000/svg" width="96" height="96" fill="none" viewBox="0 0 96 96">
  <g clip-path="url(#a)">
    <path fill="url(#b)" d="M64.27 72.566H28.303a7.376 7.376 0 0 1-7.374-7.375V27.506a1.1 1.1 0 0 1 1.085-1.086 1.1 1.1 0 0 1 1.086 1.086V65.19a5.204 5.204 0 0 0 5.203 5.203H64.27a1.1 1.1 0 0 1 1.086 1.086c-.046.588-.498 1.086-1.086 1.086Z"/>
    <path fill="color(display-p3 .0706 .0706 .0706)" fill-rule="evenodd" d="M28.213 18a2.186 2.186 0 0 0-2.185 2.186v45.166a2.186 2.186 0 0 0 2.186 2.185H73.38a2.186 2.186 0 0 0 2.186-2.186v-9.07a6.6 6.6 0 0 1-.992 2.806c-.67 1.094-1.653 1.966-2.95 2.614-1.295.648-2.825.971-4.59.971-1.72 0-3.261-.278-4.624-.838-1.363-.558-2.457-1.385-3.284-2.479-.805-1.095-1.229-2.413-1.273-3.954h6.098c.09.871.391 1.541.905 2.01.514.447 1.184.67 2.011.67.849 0 1.519-.19 2.01-.57.492-.402.738-.949.738-1.64 0-.582-.202-1.062-.604-1.442-.38-.38-.86-.693-1.44-.938-.559-.246-1.363-.525-2.413-.838-1.52-.47-2.76-.939-3.72-1.407-.961-.47-1.787-1.162-2.48-2.079-.692-.916-1.039-2.11-1.039-3.586 0-2.188.793-3.897 2.38-5.126 1.585-1.251 3.652-1.876 6.2-1.876 2.59 0 4.68.625 6.265 1.876 1.587 1.229 2.436 2.949 2.547 5.16h-6.2c-.044-.76-.323-1.35-.837-1.776-.514-.446-1.173-.67-1.977-.67-.693 0-1.251.19-1.676.57-.424.357-.636.883-.636 1.575 0 .76.357 1.352 1.072 1.776.715.424 1.832.882 3.351 1.374 1.519.514 2.748 1.005 3.686 1.475a7.016 7.016 0 0 1 2.48 2.043c.544.702.874 1.562.99 2.58V20.187A2.186 2.186 0 0 0 73.38 18H28.213Zm27.022 36.931V38.915h-5.73V54.93c0 .85-.19 1.498-.57 1.944-.38.447-.916.67-1.61.67-.759 0-1.34-.246-1.742-.737-.402-.514-.603-1.262-.603-2.245h-5.697c0 2.591.75 4.59 2.245 5.998 1.498 1.408 3.486 2.111 5.965 2.111 2.368 0 4.245-.67 5.63-2.01 1.408-1.34 2.112-3.25 2.112-5.73Z" clip-rule="evenodd"/>
  </g>
  <defs>
    <linearGradient id="b" x1="20.914" x2="65.322" y1="49.509" y2="49.509" gradientUnits="userSpaceOnUse">
      <stop stop-color="color(display-p3 .251 .7961 .9647)"/>
      <stop offset="1" stop-color="color(display-p3 .5098 .7529 .2549)"/>
    </linearGradient>
    <clipPath id="a">
      <path fill="#fff" d="M20 18h56v55H20z"/>
    </clipPath>
  </defs>
</svg>
