<svg xmlns="http://www.w3.org/2000/svg" width="96" height="96" fill="none" viewBox="0 0 96 96">
  <g clip-path="url(#a)">
    <path fill="color(display-p3 0 .5216 .2588)" d="m29.37 40.16-6.2 21.404h12.691c5.503 0 6.458-1.278 7.575-2.218 1.489-1.254 2.292-4.214 1.617-6.28-.477-1.46-1.86-2.342-2.013-2.39 1.722-.79 2.722-2.543 2.838-2.798.64-1.323 1.129-3.714-.453-5.64-1.232-1.502-3.56-1.984-5.379-2.067l-.356-.012h13.588l-6.224 21.439h6.293l2.303-8.125h3.595c2.617 0 2.374 1.624 2.444 2.321l.209 5.979h5.851s-.268-6.71-.29-7.198c-.082-1.729-1.222-2.495-2.2-2.495 1.874-.499 3.503-2.206 4.154-3.285.756-1.254 1.315-3.25.57-5.234-1.07-2.879-3.85-3.355-5.793-3.39h12.157v-.012h.012V76.92H18.202V40.16H29.37Zm6.864 12.36c2.047 0 2.164.558 2.455 1.034.279.475.151 1.473-.046 1.822-.245.43-.664 1.776-3.282 1.776h-4.653s1.338-4.62 1.338-4.631h4.188Zm26.548-8.042c2.175 0 2.257 1.473 2.257 1.891 0 .975-.861 2.901-3.502 2.902h-4.665c.003-.052 1.29-4.669 1.326-4.793h4.584Zm-23.592-.036c.965 0 1.838.616 1.838 1.637 0 1.37-1.095 2.333-2.619 2.333h-5.188l1.117-3.97h4.852Z"/>
    <path fill="color(display-p3 .9922 .7843 .1843)" d="M76.358 19.08H18.202v14.057h58.156V19.08Z"/>
  </g>
  <defs>
    <clipPath id="a">
      <path fill="#fff" d="M18.073 19h58.853v58H18.073z"/>
    </clipPath>
  </defs>
</svg>
