<svg xmlns="http://www.w3.org/2000/svg" width="96" height="96" fill="none" viewBox="0 0 96 96">
  <path fill="color(display-p3 .0196 .298 .3529)" fill-rule="evenodd" d="M47.308 19C64.296 19.253 76.125 32.3 76 48.386 75.873 64.853 62.786 76.126 47.309 76c-15.982 0-27.182-12.286-27.308-28.372C19.875 30.907 31.956 19 47.308 19Zm-.125 9.627c-9.816 0-18.499 7.853-18.499 19 .252 11.78 8.683 19 18.499 19 11.2.126 19-8.108 19-18.874 0-1.013-.754-1.9-1.76-1.9H49.952l-.127-3.04c0-1.013-1.258-1.773-2.013-1.013l-6.67 5.194c-.754.506-.755 1.772.126 2.152l6.417 5.066c.881.76 2.14.38 2.267-.76v-3.166h11.45C60.27 57 54.86 62.193 47.182 62.32c-7.675 0-14.345-5.573-14.345-14.692 0-6.967 6.04-14.44 14.094-14.567 3.523 0 6.417.886 8.934 2.786 2.39 1.267 4.782-1.773 2.769-3.546-3.146-2.153-6.67-3.673-11.451-3.673Z" clip-rule="evenodd"/>
</svg>
