<svg xmlns="http://www.w3.org/2000/svg" width="96" height="96" fill="none" viewBox="0 0 96 96">
  <path fill="color(display-p3 .2471 .298 .9176)" d="M49.3 57.774c-4.789.887-9.929-2.176-11.297-7.122-1.405-5.08 1.59-10.62 6.876-12.28v-8.104c-1.71.282-7.698 1.486-11.666 6.753-4.858 6.452-5 16.754 1.474 23.332 5.72 5.809 14.897 6.976 22.104 2.7V66h9.823V51.266h-9.823c-.13.335-2.252 5.537-7.492 6.508Z"/>
  <path fill="color(display-p3 .5176 .6157 1)" d="M47.826 29.899v8.105h9.087v10.683h9.823V29.899h-18.91Z"/>
  <path stroke="color(display-p3 .5176 .6157 1)" stroke-width=".172" d="M44.793 38.31c-5.291 1.698-8.285 7.259-6.873 12.365 1.38 4.99 6.564 8.079 11.395 7.184 2.646-.49 4.503-2.05 5.712-3.523 1.123-1.367 1.691-2.667 1.82-2.984h9.681v14.562h-9.651v-3.011l-.13.077c-7.173 4.255-16.306 3.092-21.999-2.688-6.441-6.544-6.3-16.798-1.466-23.22 3.873-5.14 9.683-6.391 11.511-6.702v7.94Zm21.857-8.325V48.6H57V37.918h-9.088v-7.933H66.65Z"/>
</svg>
