<svg xmlns="http://www.w3.org/2000/svg" width="96" height="96" fill="none" viewBox="0 0 96 96">
  <mask id="a" width="59" height="40" x="18" y="28" maskUnits="userSpaceOnUse" style="mask-type:luminance">
    <path fill="#fff" d="M18.298 68h58.404V28H18.298v40Z"/>
  </mask>
  <g mask="url(#a)">
    <path fill="color(display-p3 .0863 .6902 .7686)" d="M73.427 58.533c-10.56 9.2-36.47 8.463-48.548 2.855-2.274-.987-4.416-2.297-6.485-3.716 1.988 1.582 4.052 3.056 6.276 4.222 10.998 5.692 24.433 6.974 36.502 5.6 5.131-.73 10.267-2.121 14.661-5.45.917-.696 1.144-2.072.507-3.069-.66-1.041-2.012-1.245-2.913-.442Zm-36.47-12.871c-.49 1.124-1.154 1.953-1.996 2.498-.842.542-1.839.814-2.996.814-1.68 0-3.048-.613-4.1-1.838-1.05-1.23-1.576-3.139-1.576-5.732 0-1.68.235-3.083.709-4.203.473-1.123 1.139-1.947 1.996-2.473.86-.523 1.85-.786 2.971-.786 1.718 0 3.101.604 4.153 1.814 1.05 1.207 1.575 3.092 1.575 5.648 0 1.717-.244 3.138-.736 4.258Zm7.019-11.38a11.642 11.642 0 0 0-4.785-4.65C37.143 28.544 34.731 28 31.965 28c-2.033 0-3.9.31-5.599.922-1.699.613-3.153 1.508-4.36 2.68-1.21 1.173-2.13 2.585-2.76 4.231-.632 1.647-.948 3.504-.948 5.57 0 2.77.57 5.163 1.709 7.178a11.686 11.686 0 0 0 4.756 4.651c2.034 1.087 4.432 1.628 7.202 1.628 2.101 0 3.996-.306 5.676-.919 1.684-.613 3.12-1.498 4.311-2.655 1.192-1.155 2.11-2.575 2.76-4.256.647-1.683.972-3.556.972-5.626 0-2.733-.57-5.107-1.708-7.121ZM68.094 48.67c-1.611-3.084-2.109-6.683-1.4-10.132.635-3.094 2.29-5.966 4.681-8.143-.389-.27-.793-.522-1.223-.75a13.285 13.285 0 0 0-2.866-1.104c-1.34-.35-2.794-.526-4.363-.526-1.08 0-2.114.086-3.098.263-.87.151-1.702.371-2.498.659-1.036.373-1.98.852-2.832 1.433 2.406 2.181 4.072 5.062 4.71 8.168.708 3.45.21 7.048-1.4 10.132a15.241 15.241 0 0 1-3.029 4.01c.305.2.617.391.945.567 2.033 1.086 4.435 1.628 7.202 1.628 2.104 0 3.995-.307 5.675-.92a12.676 12.676 0 0 0 2.544-1.256 15.241 15.241 0 0 1-3.048-4.029Z"/>
    <path fill="color(display-p3 .0863 .6902 .7686)" d="m51.846 49.94.074-.07a11.261 11.261 0 0 0 2.334-3.055 11.28 11.28 0 0 0 1.027-7.47c-.483-2.352-1.78-4.535-3.655-6.166a12 12 0 0 0-1.423 2.669c-.631 1.646-.947 3.503-.947 5.57 0 2.31.396 4.355 1.188 6.14a11.97 11.97 0 0 0 1.402 2.382Zm23.088-15.643a12.19 12.19 0 0 0-.7-1.085c-1.854 1.627-3.138 3.796-3.617 6.132a11.277 11.277 0 0 0 1.027 7.471 11.22 11.22 0 0 0 2.333 3.055l.101.094a12.307 12.307 0 0 0 1.592-2.92c.458-1.19.755-2.478.888-3.865.056-.57.084-1.157.084-1.76 0-2.733-.57-5.107-1.708-7.122Z"/>
  </g>
</svg>
