<svg xmlns="http://www.w3.org/2000/svg" width="96" height="96" fill="none" viewBox="0 0 96 96">
  <path fill="color(display-p3 .0353 .3137 .4549)" d="M39.316 45.918H25.191a1.942 1.942 0 0 1-1.941-1.941V24.904c0-1.073.87-1.941 1.941-1.941h14.125c1.073 0 1.942.87 1.942 1.94v19.07a1.94 1.94 0 0 1-1.942 1.945Zm32.867 0h-25.24a1.942 1.942 0 0 1-1.94-1.941V24.904a1.94 1.94 0 0 1 1.94-1.941h25.24a1.94 1.94 0 0 1 1.941 1.94v19.07a1.94 1.94 0 0 1-1.941 1.945ZM39.316 73.084H25.191a1.942 1.942 0 0 1-1.941-1.941v-19.07c0-1.073.87-1.941 1.941-1.941h14.125c1.073 0 1.942.87 1.942 1.941v19.07a1.938 1.938 0 0 1-1.942 1.941Z"/>
  <path fill="color(display-p3 .9196 .2668 0)" d="M72.183 73.084h-25.24a1.942 1.942 0 0 1-1.94-1.941v-19.07a1.94 1.94 0 0 1 1.94-1.941h25.24c1.073 0 1.941.87 1.941 1.941v19.07a1.938 1.938 0 0 1-1.941 1.941Z"/>
</svg>
