<svg xmlns="http://www.w3.org/2000/svg" width="96" height="96" fill="none" viewBox="0 0 96 96">
  <path fill="color(display-p3 .5647 .1176 .102)" d="M73.554 40.375c.217-.012.434-.015.65-.01 2.557.067 4.795.981 6.568 2.853-2.88 1.595-5.864 3.552-8.787 5.234-1.547 1.128-5.277 2.81-6.503 4.047-2.623 2.642 5.196 9.206 6.638 10.528l-2.191 1.507c-4.849-1.242-10.371-3.057-15.265-4.457 2.77-1.542 4.353-3.185 6.27-5.608-7.328 4.378-14.671 7.792-23.323 8.503-6.598.542-13.481-.801-18.63-5.194-1.476-1.028-3.49-4.023-3.905-5.796-.547-2.334-.395-3.783.758-5.822.64 4.92 3.37 8.954 7.54 11.619a16.168 16.168 0 0 0 12.311 2.214c3.152-.71 6.19-2.136 7.951-4.936l-13.804-7.675c.704-.5 1.563-1.207 2.258-1.75 6.212 1.473 17.418 5.056 23.623 2.577 6.161-2.462 10.533-7.268 17.84-7.834Z"/>
  <path fill="color(display-p3 .5647 .1176 .102)" d="M35.574 32h3.452L32.13 42.534c-5.4-.619-12.72-1.314-16.335 3.74-.267-9.729 8.275-12.997 16.53-13.958 1.05-.123 2.22-.124 3.248-.316Z"/>
</svg>
