<svg xmlns="http://www.w3.org/2000/svg" width="96" height="96" fill="none" viewBox="0 0 96 96">
  <path fill="color(display-p3 .6627 .8275 .2588)" d="m51.094 20.359-2.484 2.166a.915.915 0 0 1-1.21 0l-2.488-2.176a.926.926 0 0 0-.727-.225c-1.583.21-3.19.56-4.808 1.049-8.542 2.585-15.312 9.32-17.95 17.866-4.898 15.904 4.047 30.76 17.646 35.372a27.794 27.794 0 0 0 8.925 1.468c3.121 0 6.123-.52 8.925-1.468 11.03-3.739 19-14.232 19-26.547 0-14.137-10.508-25.868-24.102-27.735a.93.93 0 0 0-.737.225l.01.005ZM25.22 50.395l.005-.005h8.587c.358.345.567.544.92.889.314 5.965 1.454 11.257 3.196 15.385.344.814-.532 1.602-1.299 1.168-6.207-3.57-10.602-9.974-11.419-17.432l.01-.005Zm22.947 20.457c-.06.005-.114.005-.169.005-.055 0-.11 0-.17-.005-3.17-.25-7.371-7.533-8.073-19.488a.927.927 0 0 1 .92-.979H55.32c.528 0 .95.45.921.979-.702 11.955-4.908 19.239-8.074 19.488Zm11.195-3.02c-.762.44-1.638-.354-1.3-1.168 1.828-4.333 2.988-9.944 3.231-16.269 0-.005.005-.005.005-.005v-4.108a.923.923 0 0 0-.92-.924H26.276c-.573 0-.996-.519-.907-1.088 1.106-6.994 5.361-12.954 11.27-16.353.767-.44 1.638.359 1.294 1.178-1.27 3.01-2.215 6.639-2.762 10.702a.927.927 0 0 0 .916 1.044h3.19a.927.927 0 0 0 .911-.799c1.334-9.36 4.883-14.926 7.646-15.146h.333c2.763.22 6.317 5.786 7.646 15.146a.923.923 0 0 0 .91.799h3.187c.552 0 .99-.49.916-1.044-.538-4.058-1.489-7.687-2.753-10.702-.344-.814.532-1.618 1.294-1.178 6.192 3.559 10.578 9.938 11.409 17.377 0 .04.005.08.005.12v4.916c0 .04 0 .08-.005.12-.831 7.438-5.222 13.818-11.414 17.377v.005Z"/>
</svg>
