<svg fill="none" height="28" width="154" xmlns="http://www.w3.org/2000/svg">
<g clip-path="url(#a)" fill="#D3D3D3">
<path d="M96.374 15.166a.182.182 0 0 1 .073-.029c.124-.048.24-.091.34-.133.062-.033.127-.06.193-.082 1.902-.902 3.497-2.89 3.497-4.982 0-4.392-3.266-5.771-7.085-5.771h-7.21c.071.142.437 1.7.437 1.76v19.345h3.338a.574.574 0 0 0 .54-.36.58.58 0 0 0 .042-.226V15.87h1.595c2.347 0 3.802-.545 4.159-.671.01-.022.048-.03.076-.033h.005Zm-3.986-2.105h-1.842V7.06h2.485c1.77 0 3.281.952 3.281 2.845 0 2.45-1.694 3.154-3.921 3.154M76.349 4.169h-6.652c.07.14.433 1.7.433 1.76v19.345h3.342a.594.594 0 0 0 .603-.586v-7.892h2.342c3.88 0 7.572-1.904 7.572-6.31 0-4.76-3.486-6.317-7.644-6.317h.004ZM76.497 14h-2.41V7.024h2.425c2.198 0 3.29 1.358 3.29 3.461C79.802 12.535 78.63 14 76.5 14"></path>
<path d="m93.114 17.47 4.84 7.801h4.472l-5.442-8.404a12.82 12.82 0 0 1-3.87.607M103.564 5.93v19.34h3.377a.59.59 0 0 0 .602-.584V4.169h-4.359c.013.14.381 1.7.381 1.76M122.466 16.392c-.397 1.132-.479 2.175-.767 3.389-.235-1.198-.399-2.342-.838-3.506L116.406 4.17h-5.516c.009.14.398 1.7.398 1.76v19.328h2.591a.603.603 0 0 0 .552-.604V10.95c0-.702-.14-1.415-.153-2.078.234.688.438 1.376.683 2.078l5.283 14.324h2.13l5.129-14.324c.246-.702.449-1.39.687-2.078-.088.69-.139 1.383-.152 2.078v14.307h3.336a.606.606 0 0 0 .556-.604V4.169h-5.065l-4.399 12.223ZM143.908 3.857c-6.417 0-9.955 4.667-9.955 10.832 0 6.117 3.503 10.904 9.926 10.904 6.367 0 10.122-4.629 10.122-10.832 0-6.324-3.555-10.905-10.091-10.905l-.002.001Zm.09 19.006c-4.511 0-5.82-4.503-5.82-8.286 0-3.722 1.341-7.996 5.768-7.996 4.524 0 5.816 4.535 5.816 8.277 0 3.741-1.341 8.005-5.764 8.005M1.552 14.517c0 1.561 1.067 2.896 2.917 2.896a3.566 3.566 0 0 0 1.74-.43V15.53H3.993v-1.216h3.617v3.266a4.617 4.617 0 0 1-3.166 1.216c-2.561 0-4.449-1.929-4.449-4.295 0-2.366 1.85-4.314 4.423-4.314 1.21 0 2.133.333 3.011 1l-.68 1.148c-.819-.549-1.518-.775-2.29-.775-1.865 0-2.907 1.442-2.907 2.957ZM15.96 15.517c.142.894.592 1.955 1.47 1.955a1.35 1.35 0 0 0 .913-.37l.533 1.05a2.33 2.33 0 0 1-1.66.643c-1.957 0-2.558-2.241-2.644-3.195H13.17v3.064h-1.518V10.32h3.582c1.647 0 2.585 1.252 2.585 2.682-.001 1.216-.701 2.219-1.86 2.515Zm-.962-1.132c.783 0 1.281-.573 1.281-1.395 0-.822-.511-1.407-1.28-1.407H13.17v2.802h1.827ZM28.879 10.32v5.222c0 2.132-1.541 3.254-3.356 3.254-1.814 0-3.355-1.122-3.355-3.254V10.32h1.518v5.222c0 1.298.842 1.942 1.841 1.942 1 0 1.842-.644 1.842-1.942V10.32h1.51ZM33.277 18.664V10.32h3.487c1.66 0 2.596 1.234 2.596 2.682 0 1.447-.949 2.61-2.596 2.61h-1.97v3.052h-1.517Zm3.25-4.256c.794 0 1.281-.583 1.281-1.418 0-.859-.487-1.44-1.28-1.44h-1.733v2.86l1.732-.002ZM46.935 10.19c2.372 0 4.341 1.93 4.341 4.303 0 2.372-1.969 4.303-4.34 4.303-2.373 0-4.34-1.93-4.34-4.303 0-2.372 1.968-4.303 4.34-4.303Zm0 7.224c1.53 0 2.8-1.235 2.8-2.92 0-1.687-1.27-2.921-2.8-2.921-1.53 0-2.797 1.24-2.797 2.92 0 1.681 1.269 2.92 2.797 2.92ZM61.459 0h-.762v28h.762V0Z"></path>
</g>
<defs>
<clipPath id="a">
<path d="M0 0h154v28H0z" fill="currentColor"></path>
</clipPath>
</defs>
</svg>