<svg preserveAspectRatio="none" width="100%" height="100%" overflow="visible" style="display: block;" viewBox="0 0 26 20" fill="none" xmlns="http://www.w3.org/2000/svg">
<path id="Vector" d="M25.9537 18.1664L22.0847 2.86048C21.9162 2.20037 21.3231 1.74029 20.6356 1.74029H13.9795C13.7099 0.740124 12.7831 0 11.6878 0H1.49299C0.670664 0 0 0.663444 0 1.47691V16.7828C0 17.5963 0.670664 18.2597 1.49299 18.2597H1.75586V18.5198C1.75586 19.3332 2.42652 19.9967 3.24885 19.9967H12.3955C12.8033 19.9967 13.1807 19.8333 13.4537 19.5633C13.5784 19.4399 13.6829 19.2932 13.757 19.1299C13.7941 19.0498 13.8244 18.9665 13.8447 18.8798L14.5423 16.126L14.6501 15.7026L14.6636 15.6526H19.4695L20.2851 18.8798C20.4536 19.5399 21.0467 20 21.7342 20H24.5045C24.9662 20 25.3976 19.7933 25.6841 19.4299C25.9672 19.0732 26.0683 18.6098 25.9537 18.1664ZM1.75586 3.2172V17.3929H1.49299C1.1526 17.3929 0.876245 17.1195 0.876245 16.7828V1.47691C0.876245 1.14019 1.1526 0.866811 1.49299 0.866811H11.6911C12.2944 0.866811 12.8168 1.22354 13.0527 1.73696H3.24885C2.42652 1.74029 1.75586 2.40373 1.75586 3.2172ZM11.1182 6.52442L11.0643 6.74112L10.6262 8.48141H7.29642C7.1515 8.48141 7.03355 8.36473 7.03355 8.22137V6.7878C7.03355 6.77446 7.03355 6.75779 7.03692 6.74446C7.05714 6.6211 7.16499 6.52775 7.29642 6.52775H11.1182V6.52442ZM7.29305 15.2192C7.14814 15.2192 7.03018 15.1025 7.03018 14.9592V13.5256C7.03018 13.5123 7.03018 13.4956 7.03355 13.4822C7.05377 13.3589 7.16162 13.2655 7.29305 13.2655H9.41289L9.35897 13.4822L8.92085 15.2225H7.29305V15.2192ZM24.9898 18.8998C24.8719 19.0498 24.6966 19.1332 24.5045 19.1332H21.7342C21.4511 19.1332 21.2051 18.9432 21.1377 18.6731L20.3053 15.3792C20.2177 15.0292 19.9009 14.7858 19.5369 14.7858H14.5928C14.3502 14.7858 14.1278 14.8958 13.9828 15.0692C13.9424 15.1159 13.9121 15.1659 13.8851 15.2192C13.8615 15.2692 13.8413 15.3226 13.8278 15.3759L13.757 15.6526L13.2144 17.8063L12.9954 18.6698C12.928 18.9398 12.682 19.1299 12.3989 19.1299H9.62858C9.43648 19.1299 9.26123 19.0432 9.14328 18.8965C9.02532 18.7465 8.98488 18.5564 9.03206 18.3731L9.06239 18.2597L10.2723 13.4756L10.3262 13.2589L11.4249 8.91148L11.4316 8.88481L11.5361 8.47808L11.9742 6.73779L12.0281 6.52109L12.6887 3.91065L12.901 3.06718C12.9415 2.90382 13.0493 2.76713 13.1909 2.69045C13.2818 2.63711 13.3863 2.6071 13.5009 2.6071H20.6457C20.9288 2.6071 21.1748 2.79713 21.2422 3.06718L25.1112 18.3731C25.1482 18.5598 25.1078 18.7498 24.9898 18.8998Z" fill="var(--fill-0, #636374)"/>
</svg>
