<svg width="185" height="40" viewBox="0 0 185 40" fill="none" xmlns="http://www.w3.org/2000/svg">
<g clip-path="url(#clip0_6458_1127)">
<path d="M57.9586 4.32712C61.4697 4.32712 64.4897 5.59835 67.0164 8.14081C69.5432 10.6833 70.8077 13.7817 70.8077 17.4385C70.8077 21.0616 69.5611 24.1265 67.068 26.633C64.5749 29.1419 61.5504 30.3952 57.9923 30.3952C54.266 30.3952 51.172 29.1082 48.7058 26.5322C46.2418 23.9561 45.0087 20.8957 45.0087 17.3533C45.0087 14.9812 45.5826 12.7975 46.7306 10.8066C47.8785 8.81566 49.4569 7.23727 51.4657 6.07366C53.4746 4.91005 55.6404 4.32712 57.9586 4.32712ZM57.9093 8.95018C55.6112 8.95018 53.6808 9.74834 52.1159 11.3469C50.551 12.9432 49.7685 14.9745 49.7685 17.4385C49.7685 20.1827 50.7528 22.3553 52.7235 23.9516C54.2548 25.2004 56.0103 25.8237 57.9923 25.8237C60.2321 25.8237 62.1423 25.0143 63.7184 23.3933C65.2945 21.7746 66.0837 19.7769 66.0837 17.4026C66.0837 15.0395 65.2901 13.0419 63.7027 11.4052C62.1154 9.76852 60.1827 8.95018 57.9093 8.95018Z" fill="white" style="fill:white;fill-opacity:1;"/>
<path d="M71.0857 11.4119H75.0339V13.7235C75.4621 12.8132 76.0294 12.1204 76.7378 11.6473C77.4463 11.1743 78.2221 10.9389 79.0651 10.9389C79.6615 10.9389 80.2847 11.0958 80.9372 11.4119L79.5023 15.3758C78.9619 15.1068 78.518 14.97 78.1683 14.97C77.4598 14.97 76.8612 15.4095 76.3724 16.2861C75.8836 17.1627 75.6393 18.8846 75.6393 21.4495L75.6572 22.344V29.7674H71.0857V11.4119Z" fill="white" style="fill:white;fill-opacity:1;"/>
<path d="M98.5931 15.1247L94.7593 17.2345C94.0373 16.4812 93.3266 15.9588 92.6226 15.6651C91.9186 15.3736 91.0935 15.2256 90.1474 15.2256C88.4233 15.2256 87.031 15.739 85.966 16.7681C84.9011 17.795 84.3697 19.1133 84.3697 20.7186C84.3697 22.279 84.8831 23.5547 85.9077 24.5435C86.9323 25.5322 88.2776 26.0255 89.9456 26.0255C92.0061 26.0255 93.6113 25.3215 94.7593 23.9157L98.3913 26.4021C96.4228 28.9625 93.645 30.2427 90.0555 30.2427C86.827 30.2427 84.3002 29.2876 82.4707 27.3752C80.6435 25.4627 79.7287 23.2252 79.7287 20.6603C79.7287 18.8824 80.1726 17.2457 81.0605 15.7502C81.9483 14.2548 83.1882 13.08 84.78 12.2235C86.3718 11.3693 88.152 10.9411 90.1205 10.9411C91.9433 10.9411 93.58 11.3043 95.0305 12.0285C96.4856 12.7549 97.6717 13.7862 98.5931 15.1247ZM87.9637 29.5006H90.8155L90.6138 30.2763C91.3671 30.4445 91.9612 30.7718 92.3939 31.2606C92.8266 31.7493 93.0441 32.2852 93.0441 32.8681C93.0441 33.7761 92.6607 34.5564 91.8962 35.2066C91.1317 35.8567 90.0689 36.1818 88.708 36.1818C87.605 36.1818 86.3561 35.924 84.9616 35.4061L85.5692 33.2291C86.3786 33.4869 87.1722 33.617 87.948 33.617C88.5219 33.617 88.9502 33.5071 89.2304 33.2874C89.5107 33.0677 89.6519 32.7784 89.6519 32.4197C89.6519 32.1283 89.5443 31.8973 89.3313 31.7269C89.1183 31.5588 88.7798 31.4736 88.3179 31.4736L87.374 31.5072L87.9637 29.5006Z" fill="white" style="fill:white;fill-opacity:1;"/>
<path d="M112.837 11.4119H117.442V29.7696H112.837V27.8303C111.938 28.6845 111.036 29.3011 110.133 29.6777C109.229 30.0544 108.247 30.2427 107.191 30.2427C104.821 30.2427 102.77 29.3235 101.039 27.485C99.3083 25.6466 98.4429 23.3597 98.4429 20.6267C98.4429 17.7927 99.2792 15.47 100.954 13.6584C102.629 11.8469 104.662 10.9411 107.055 10.9411C108.155 10.9411 109.189 11.1496 110.155 11.5644C111.122 11.9814 112.014 12.6047 112.834 13.4365V11.4119H112.837ZM107.996 15.192C106.573 15.192 105.389 15.6964 104.447 16.7031C103.505 17.7098 103.035 19.0012 103.035 20.5751C103.035 22.1602 103.514 23.4673 104.472 24.4897C105.431 25.5143 106.611 26.0255 108.012 26.0255C109.458 26.0255 110.657 25.521 111.61 24.5143C112.563 23.5077 113.039 22.1894 113.039 20.5572C113.039 18.9608 112.561 17.6672 111.61 16.6762C110.657 15.6875 109.454 15.192 107.996 15.192Z" fill="white" style="fill:white;fill-opacity:1;"/>
<path d="M118.612 11.4119H123.217V13.5217C124.004 12.6563 124.881 12.0083 125.843 11.5823C126.805 11.1541 127.854 10.9411 128.993 10.9411C130.141 10.9411 131.177 11.2236 132.1 11.7841C133.024 12.3469 133.766 13.1674 134.329 14.2481C135.06 13.1674 135.959 12.3469 137.021 11.7841C138.084 11.2214 139.248 10.9411 140.508 10.9411C141.813 10.9411 142.963 11.2438 143.952 11.8514C144.943 12.459 145.653 13.2526 146.088 14.2302C146.521 15.2099 146.738 16.8018 146.738 19.0057V29.7696H142.097V20.4563C142.097 18.3757 141.84 16.9677 141.322 16.23C140.804 15.4924 140.028 15.1247 138.994 15.1247C138.208 15.1247 137.501 15.3489 136.876 15.7996C136.25 16.2502 135.788 16.8713 135.483 17.6649C135.181 18.4586 135.028 19.7321 135.028 21.4876V29.7719H130.387V20.8778C130.387 19.2366 130.266 18.0461 130.024 17.3085C129.782 16.5731 129.419 16.0238 128.932 15.6628C128.448 15.3018 127.861 15.1225 127.172 15.1225C126.405 15.1225 125.71 15.3512 125.083 15.8063C124.455 16.2614 123.989 16.9004 123.679 17.721C123.37 18.5416 123.215 19.8352 123.215 21.6019V29.7674H118.61V11.4119H118.612Z" fill="#CA5A1D" style="fill:#CA5A1D;fill:color(display-p3 0.7922 0.3529 0.1137);fill-opacity:1;"/>
<path d="M161.217 11.4119H165.823V29.7696H161.217V27.8303C160.318 28.6845 159.417 29.3011 158.514 29.6777C157.61 30.0544 156.628 30.2427 155.572 30.2427C153.202 30.2427 151.151 29.3235 149.42 27.485C147.689 25.6466 146.824 23.3597 146.824 20.6267C146.824 17.7927 147.66 15.47 149.335 13.6584C151.009 11.8469 153.043 10.9411 155.435 10.9411C156.536 10.9411 157.57 11.1496 158.536 11.5644C159.502 11.9814 160.395 12.6047 161.215 13.4365V11.4119H161.217ZM156.375 15.192C154.951 15.192 153.767 15.6964 152.826 16.7031C151.884 17.7098 151.413 19.0012 151.413 20.5751C151.413 22.1602 151.893 23.4673 152.85 24.4897C153.81 25.5143 154.989 26.0255 156.39 26.0255C157.836 26.0255 159.036 25.521 159.989 24.5143C160.942 23.5077 161.419 22.1894 161.419 20.5572C161.419 18.9608 160.942 17.6672 159.989 16.6762C159.038 15.6875 157.834 15.192 156.375 15.192Z" fill="#CA5A1D" style="fill:#CA5A1D;fill:color(display-p3 0.7922 0.3529 0.1137);fill-opacity:1;"/>
<path d="M168.822 3.85405C169.63 3.85405 170.322 4.14776 170.901 4.73068C171.479 5.31585 171.768 6.02433 171.768 6.85612C171.768 7.67671 171.484 8.37846 170.91 8.9569C170.338 9.53535 169.654 9.82681 168.858 9.82681C168.04 9.82681 167.34 9.53086 166.764 8.94121C166.186 8.35156 165.899 7.63411 165.899 6.78886C165.899 5.97949 166.184 5.2867 166.757 4.71275C167.325 4.14103 168.015 3.85405 168.822 3.85405ZM166.52 11.4119H171.125V29.7696H166.52V11.4119Z" fill="#CA5A1D" style="fill:#CA5A1D;fill:color(display-p3 0.7922 0.3529 0.1137);fill-opacity:1;"/>
<path d="M183.956 13.9768L181.104 16.8287C179.945 15.6807 178.894 15.1068 177.95 15.1068C177.432 15.1068 177.028 15.2166 176.734 15.4364C176.443 15.6561 176.295 15.9296 176.295 16.2547C176.295 16.5036 176.387 16.73 176.573 16.9385C176.759 17.147 177.217 17.4295 177.947 17.7905L179.636 18.6335C181.414 19.5101 182.633 20.4047 183.297 21.3172C183.961 22.2275 184.292 23.2969 184.292 24.5233C184.292 26.1555 183.694 27.5164 182.496 28.606C181.299 29.6979 179.692 30.2427 177.678 30.2427C175.001 30.2427 172.865 29.1979 171.266 27.1039L174.1 24.0166C174.64 24.6466 175.273 25.1556 175.999 25.5434C176.726 25.9313 177.369 26.1263 177.932 26.1263C178.539 26.1263 179.028 25.9806 179.4 25.6869C179.77 25.3954 179.956 25.0569 179.956 24.6735C179.956 23.965 179.288 23.2722 177.947 22.5974L176.396 21.8217C173.428 20.3262 171.941 18.4519 171.941 16.2031C171.941 14.7525 172.499 13.5127 173.62 12.4836C174.741 11.4545 176.172 10.9389 177.914 10.9389C179.107 10.9389 180.228 11.2012 181.279 11.7236C182.331 12.246 183.223 12.9993 183.956 13.9768Z" fill="#CA5A1D" style="fill:#CA5A1D;fill:color(display-p3 0.7922 0.3529 0.1137);fill-opacity:1;"/>
<path d="M12.8109 18.3375H1.53804C0.681584 18.3375 -0.0112019 17.6425 -0.0112019 16.7883V1.56717C-0.0112019 0.710715 0.683827 0.0179291 1.53804 0.0179291H12.8109C13.6674 0.0179291 14.3602 0.712957 14.3602 1.56717V16.786C14.3624 17.6425 13.6674 18.3375 12.8109 18.3375Z" fill="white" style="fill:white;fill-opacity:1;"/>
<path d="M39.0404 18.3375H18.898C18.0416 18.3375 17.3488 17.6425 17.3488 16.7883V1.56717C17.3488 0.710715 18.0438 0.0179291 18.898 0.0179291H39.0404C39.8969 0.0179291 40.5897 0.712957 40.5897 1.56717V16.786C40.5919 17.6425 39.8969 18.3375 39.0404 18.3375Z" fill="white" style="fill:white;fill-opacity:1;"/>
<path d="M12.8109 40.0179H1.53804C0.681583 40.0179 -0.0112038 39.3229 -0.0112038 38.4687V23.2498C-0.0112038 22.3934 0.683825 21.7006 1.53804 21.7006H12.8109C13.6674 21.7006 14.3602 22.3956 14.3602 23.2498V38.4687C14.3624 39.3251 13.6674 40.0179 12.8109 40.0179Z" fill="white" style="fill:white;fill-opacity:1;"/>
<path d="M39.0404 40.0179H18.898C18.0416 40.0179 17.3488 39.3229 17.3488 38.4687V23.2498C17.3488 22.3934 18.0438 21.7006 18.898 21.7006H39.0404C39.8969 21.7006 40.5897 22.3956 40.5897 23.2498V38.4687C40.5919 39.3251 39.8969 40.0179 39.0404 40.0179Z" fill="#CA5A1D" style="fill:#CA5A1D;fill:color(display-p3 0.7922 0.3529 0.1137);fill-opacity:1;"/>
</g>
<defs>
<clipPath id="clip0_6458_1127">
<rect width="184.306" height="40" fill="white" style="fill:white;fill-opacity:1;"/>
</clipPath>
</defs>
</svg>
