<svg width="185" height="40" viewBox="0 0 185 40" fill="none" xmlns="http://www.w3.org/2000/svg">
<g clip-path="url(#clip0_6461_396)">
<path d="M58.3054 4.32715C61.8164 4.32715 64.8364 5.59838 67.3632 8.14084C69.89 10.6833 71.1545 13.7818 71.1545 17.4385C71.1545 21.0616 69.9079 24.1265 67.4148 26.6331C64.9216 29.1419 61.8971 30.3952 58.339 30.3952C54.6128 30.3952 51.5188 29.1083 49.0526 26.5322C46.5886 23.9561 45.3555 20.8957 45.3555 17.3533C45.3555 14.9813 45.9294 12.7975 47.0773 10.8066C48.2253 8.81569 49.8037 7.2373 51.8125 6.07369C53.8214 4.91008 55.9872 4.32715 58.3054 4.32715ZM58.2561 8.95021C55.958 8.95021 54.0276 9.74837 52.4627 11.3469C50.8978 12.9433 50.1153 14.9745 50.1153 17.4385C50.1153 20.1828 51.0995 22.3553 53.0703 23.9516C54.6016 25.2004 56.3571 25.8237 58.339 25.8237C60.5788 25.8237 62.489 25.0143 64.0652 23.3933C65.6413 21.7746 66.4305 19.777 66.4305 17.4026C66.4305 15.0396 65.6368 13.0419 64.0495 11.4052C62.4621 9.76855 60.5295 8.95021 58.2561 8.95021Z" fill="#FB6801" style="fill:#FB6801;fill:color(display-p3 0.9843 0.4078 0.0039);fill-opacity:1;"/>
<path d="M71.4326 11.4119H75.3808V13.7234C75.8091 12.8132 76.3763 12.1204 77.0848 11.6473C77.7932 11.1743 78.569 10.9388 79.412 10.9388C80.0084 10.9388 80.6317 11.0958 81.2841 11.4119L79.8492 15.3758C79.3089 15.1068 78.8649 14.97 78.5152 14.97C77.8067 14.97 77.2081 15.4094 76.7193 16.2861C76.2306 17.1627 75.9862 18.8846 75.9862 21.4495L76.0041 22.344V29.7674H71.4326V11.4119Z" fill="#FB6801" style="fill:#FB6801;fill:color(display-p3 0.9843 0.4078 0.0039);fill-opacity:1;"/>
<path d="M98.9396 15.1247L95.1057 17.2345C94.3838 16.4812 93.6731 15.9588 92.9691 15.6651C92.2651 15.3736 91.44 15.2256 90.4939 15.2256C88.7698 15.2256 87.3775 15.739 86.3125 16.7681C85.2476 17.795 84.7162 19.1133 84.7162 20.7186C84.7162 22.279 85.2296 23.5547 86.2542 24.5435C87.2788 25.5322 88.624 26.0255 90.2921 26.0255C92.3525 26.0255 93.9578 25.3215 95.1057 23.9157L98.7378 26.4021C96.7693 28.9625 93.9915 30.2427 90.402 30.2427C87.1735 30.2427 84.6467 29.2876 82.8172 27.3752C80.9899 25.4627 80.0752 23.2252 80.0752 20.6603C80.0752 18.8824 80.5191 17.2457 81.407 15.7502C82.2948 14.2548 83.5346 13.08 85.1265 12.2235C86.7183 11.3693 88.4985 10.9411 90.467 10.9411C92.2898 10.9411 93.9264 11.3043 95.377 12.0285C96.8321 12.7549 98.0181 13.7862 98.9396 15.1247ZM88.3102 29.5006H91.162L90.9602 30.2763C91.7136 30.4445 92.3077 30.7718 92.7404 31.2606C93.1731 31.7493 93.3906 32.2852 93.3906 32.8681C93.3906 33.7761 93.0072 34.5564 92.2427 35.2066C91.4781 35.8567 90.4154 36.1818 89.0545 36.1818C87.9514 36.1818 86.7026 35.924 85.3081 35.4061L85.9157 33.2291C86.7251 33.4869 87.5187 33.617 88.2945 33.617C88.8684 33.617 89.2967 33.5071 89.5769 33.2874C89.8572 33.0677 89.9984 32.7784 89.9984 32.4197C89.9984 32.1283 89.8908 31.8973 89.6778 31.7269C89.4648 31.5588 89.1263 31.4736 88.6644 31.4736L87.7205 31.5072L88.3102 29.5006Z" fill="#FB6801" style="fill:#FB6801;fill:color(display-p3 0.9843 0.4078 0.0039);fill-opacity:1;"/>
<path d="M113.184 11.4119H117.789V29.7696H113.184V27.8303C112.285 28.6845 111.384 29.3011 110.48 29.6777C109.576 30.0544 108.594 30.2427 107.538 30.2427C105.169 30.2427 103.117 29.3235 101.386 27.485C99.6555 25.6466 98.79 23.3597 98.79 20.6267C98.79 17.7927 99.6263 15.47 101.301 13.6584C102.976 11.8469 105.009 10.9411 107.402 10.9411C108.502 10.9411 109.536 11.1496 110.502 11.5644C111.469 11.9814 112.361 12.6047 113.182 13.4365V11.4119H113.184ZM108.343 15.192C106.92 15.192 105.736 15.6964 104.794 16.7031C103.853 17.7098 103.382 19.0012 103.382 20.5751C103.382 22.1602 103.862 23.4673 104.819 24.4897C105.778 25.5143 106.958 26.0255 108.359 26.0255C109.805 26.0255 111.005 25.521 111.957 24.5143C112.91 23.5077 113.386 22.1894 113.386 20.5572C113.386 18.9608 112.908 17.6672 111.957 16.6762C111.005 15.6875 109.801 15.192 108.343 15.192Z" fill="#FB6801" style="fill:#FB6801;fill:color(display-p3 0.9843 0.4078 0.0039);fill-opacity:1;"/>
<path d="M118.959 11.4119H123.564V13.5217C124.351 12.6563 125.228 12.0083 126.19 11.5823C127.152 11.1541 128.201 10.9411 129.34 10.9411C130.488 10.9411 131.524 11.2236 132.447 11.7841C133.371 12.3469 134.113 13.1674 134.676 14.2481C135.407 13.1674 136.306 12.3469 137.369 11.7841C138.431 11.2214 139.595 10.9411 140.855 10.9411C142.16 10.9411 143.31 11.2438 144.299 11.8514C145.29 12.459 146 13.2526 146.435 14.2302C146.868 15.2099 147.085 16.8018 147.085 19.0057V29.7696H142.444V20.4563C142.444 18.3757 142.187 16.9677 141.669 16.23C141.151 15.4924 140.375 15.1247 139.342 15.1247C138.555 15.1247 137.848 15.3489 137.223 15.7996C136.597 16.2502 136.135 16.8713 135.831 17.6649C135.528 18.4586 135.375 19.7321 135.375 21.4876V29.7719H130.734V20.8778C130.734 19.2366 130.613 18.0461 130.371 17.3085C130.129 16.5731 129.766 16.0238 129.279 15.6628C128.795 15.3018 128.208 15.1225 127.519 15.1225C126.753 15.1225 126.058 15.3512 125.43 15.8063C124.802 16.2614 124.336 16.9004 124.026 17.721C123.717 18.5416 123.562 19.8352 123.562 21.6019V29.7674H118.957V11.4119H118.959Z" fill="#0A0D4B" style="fill:#0A0D4B;fill:color(display-p3 0.0392 0.0510 0.2941);fill-opacity:1;"/>
<path d="M161.564 11.4119H166.169V29.7696H161.564V27.8303C160.665 28.6845 159.763 29.3011 158.86 29.6777C157.956 30.0544 156.974 30.2427 155.918 30.2427C153.548 30.2427 151.497 29.3235 149.766 27.485C148.035 25.6466 147.17 23.3597 147.17 20.6267C147.17 17.7927 148.006 15.47 149.681 13.6584C151.356 11.8469 153.389 10.9411 155.782 10.9411C156.882 10.9411 157.916 11.1496 158.882 11.5644C159.849 11.9814 160.741 12.6047 161.561 13.4365V11.4119H161.564ZM156.721 15.192C155.297 15.192 154.113 15.6964 153.172 16.7031C152.23 17.7098 151.759 19.0012 151.759 20.5751C151.759 22.1602 152.239 23.4673 153.196 24.4897C154.156 25.5143 155.335 26.0255 156.737 26.0255C158.183 26.0255 159.382 25.521 160.335 24.5143C161.288 23.5077 161.766 22.1894 161.766 20.5572C161.766 18.9608 161.288 17.6672 160.335 16.6762C159.384 15.6875 158.181 15.192 156.721 15.192Z" fill="#0A0D4B" style="fill:#0A0D4B;fill:color(display-p3 0.0392 0.0510 0.2941);fill-opacity:1;"/>
<path d="M169.169 3.85406C169.976 3.85406 170.669 4.14777 171.247 4.7307C171.826 5.31587 172.115 6.02435 172.115 6.85614C172.115 7.67672 171.83 8.37848 171.256 8.95692C170.684 9.53536 170.001 9.82682 169.205 9.82682C168.386 9.82682 167.687 9.53088 167.111 8.94122C166.532 8.35157 166.245 7.63412 166.245 6.78888C166.245 5.97951 166.53 5.28672 167.104 4.71276C167.671 4.14104 168.362 3.85406 169.169 3.85406ZM166.866 11.4119H171.471V29.7697H166.866V11.4119Z" fill="#0A0D4B" style="fill:#0A0D4B;fill:color(display-p3 0.0392 0.0510 0.2941);fill-opacity:1;"/>
<path d="M184.303 13.9768L181.451 16.8286C180.292 15.6807 179.241 15.1068 178.297 15.1068C177.779 15.1068 177.375 15.2166 177.082 15.4363C176.79 15.6561 176.642 15.9296 176.642 16.2547C176.642 16.5036 176.734 16.73 176.92 16.9385C177.106 17.147 177.564 17.4295 178.295 17.7905L179.983 18.6335C181.761 19.5101 182.98 20.4047 183.644 21.3172C184.308 22.2274 184.639 23.2969 184.639 24.5233C184.639 26.1555 184.041 27.5164 182.844 28.606C181.646 29.6979 180.039 30.2427 178.025 30.2427C175.348 30.2427 173.212 29.1979 171.613 27.1039L174.447 24.0166C174.988 24.6466 175.62 25.1555 176.346 25.5434C177.073 25.9313 177.716 26.1263 178.279 26.1263C178.886 26.1263 179.375 25.9806 179.747 25.6869C180.117 25.3954 180.303 25.0569 180.303 24.6735C180.303 23.965 179.635 23.2722 178.295 22.5974L176.743 21.8216C173.775 20.3262 172.288 18.4519 172.288 16.2031C172.288 14.7525 172.846 13.5127 173.967 12.4836C175.088 11.4545 176.519 10.9388 178.261 10.9388C179.454 10.9388 180.575 11.2012 181.626 11.7236C182.678 12.2459 183.57 12.9993 184.303 13.9768Z" fill="#0A0D4B" style="fill:#0A0D4B;fill:color(display-p3 0.0392 0.0510 0.2941);fill-opacity:1;"/>
<path d="M13.1581 18.3375H1.88518C1.02872 18.3375 0.335938 17.6425 0.335938 16.7883V1.56718C0.335938 0.710731 1.03097 0.0179443 1.88518 0.0179443H13.1581C14.0145 0.0179443 14.7073 0.712973 14.7073 1.56718V16.7861C14.7096 17.6425 14.0145 18.3375 13.1581 18.3375Z" fill="#FB6801" style="fill:#FB6801;fill:color(display-p3 0.9843 0.4078 0.0039);fill-opacity:1;"/>
<path d="M39.3879 18.3375H19.2455C18.3891 18.3375 17.6963 17.6425 17.6963 16.7883V1.56718C17.6963 0.710731 18.3913 0.0179443 19.2455 0.0179443H39.3879C40.2444 0.0179443 40.9371 0.712973 40.9371 1.56718V16.7861C40.9394 17.6425 40.2444 18.3375 39.3879 18.3375Z" fill="#FB6801" style="fill:#FB6801;fill:color(display-p3 0.9843 0.4078 0.0039);fill-opacity:1;"/>
<path d="M13.1581 40.0179H1.88518C1.02872 40.0179 0.335938 39.3229 0.335938 38.4687V23.2498C0.335938 22.3933 1.03097 21.7006 1.88518 21.7006H13.1581C14.0145 21.7006 14.7073 22.3956 14.7073 23.2498V38.4687C14.7096 39.3251 14.0145 40.0179 13.1581 40.0179Z" fill="#FB6801" style="fill:#FB6801;fill:color(display-p3 0.9843 0.4078 0.0039);fill-opacity:1;"/>
<path d="M39.3879 40.0179H19.2455C18.3891 40.0179 17.6963 39.3229 17.6963 38.4687V23.2498C17.6963 22.3933 18.3913 21.7006 19.2455 21.7006H39.3879C40.2444 21.7006 40.9371 22.3956 40.9371 23.2498V38.4687C40.9394 39.3251 40.2444 40.0179 39.3879 40.0179Z" fill="#0A0D4B" style="fill:#0A0D4B;fill:color(display-p3 0.0392 0.0510 0.2941);fill-opacity:1;"/>
</g>
<defs>
<clipPath id="clip0_6461_396">
<rect width="184.306" height="40" fill="white" style="fill:white;fill-opacity:1;" transform="translate(0.34668)"/>
</clipPath>
</defs>
</svg>
