<svg width="32" height="32" viewBox="0 0 32 32" fill="none" xmlns="http://www.w3.org/2000/svg">
<path d="M20.1053 5H11.9997C7.39777 5 3.65491 8.66557 3.65491 13.1725C3.65491 17.6794 7.39103 21.3383 11.9896 21.3449L15.729 24.575L18.5421 27V21.4571H20.0985C24.7004 21.4571 28.4433 17.7915 28.4433 13.2846V13.1725C28.4433 8.66557 24.7004 5 20.0985 5H20.1053ZM24.1951 13.2846C24.1951 15.4919 22.3591 17.29 20.1053 17.29H18.5455V21.4472L16.3691 19.5666L13.5999 17.1745H12.0031C9.74927 17.1745 7.91321 15.3765 7.91321 13.1692C7.91321 10.9619 9.74927 9.16377 12.0031 9.16377H20.1086C22.3625 9.16377 24.1986 10.9619 24.1986 13.1692V13.2813L24.1951 13.2846Z" fill="#007AFF" style="fill:#007AFF;fill:color(display-p3 0.0000 0.4784 1.0000);fill-opacity:1;"/>
</svg>
