<svg xmlns="http://www.w3.org/2000/svg" width="85" height="32" fill="none"><g fill="#007AFF" clip-path="url(#a)"><path d="M36.291 5.978v18.265h-3.704V5.978h3.704ZM81 9.504h-3.705v14.74H81V9.504Zm-70.862 8.009v-4.269h4.789V9.427l-4.79-.002V5.978h-3.73v3.447H4v3.82h2.407v6.54c0 2.723 1.244 4.23 3.73 4.523h4.79v-3.41h-4.79v-3.385Zm42.399-8.249h-7.423c-4.214 0-7.641 3.447-7.641 7.683 0 4.235 3.423 7.677 7.633 7.682l3.425 3.036.002-.002 2.577 2.283v-5.212h1.426c4.213 0 7.642-3.447 7.642-7.682v-.106c0-4.237-3.429-7.683-7.642-7.683l.001.001Zm3.746 7.789c0 2.076-1.68 3.765-3.746 3.765h-1.429v3.91l-1.994-1.768-2.535-2.247h-1.464c-2.065 0-3.745-1.69-3.745-3.765 0-2.077 1.68-3.766 3.745-3.766h7.423c2.065 0 3.745 1.69 3.745 3.766v.106-.001Zm12.135 7.634c-3.973 0-7.206-3.25-7.206-7.244V9.504h3.62v7.939c0 1.987 1.608 3.605 3.586 3.605 1.977 0 3.584-1.617 3.584-3.605V9.528h3.62v7.915c0 3.994-3.232 7.244-7.205 7.244h.001ZM27.058 9.504v2.102c-.494-.674-1.151-1.232-1.972-1.676-.82-.443-1.777-.665-2.871-.665-1.253 0-2.386.31-3.4.93-1.015.622-1.818 1.508-2.409 2.661-.591 1.153-.886 2.475-.886 3.964 0 1.49.296 2.843.886 4.004.591 1.162 1.394 2.062 2.409 2.7 1.014.64 2.14.958 3.374.958 1.093 0 2.059-.226 2.897-.678.839-.452 1.495-1.025 1.972-1.716v2.155h3.732V9.504h-3.732Zm-3.903 11.243c-2.154 0-3.9-1.706-3.9-3.81 0-2.105 1.746-3.81 3.9-3.81 2.153 0 3.9 1.705 3.9 3.81 0 2.104-1.747 3.81-3.9 3.81Z" style="fill:#007aff;fill:color(display-p3 0 .4784 1);fill-opacity:1"/></g><defs><clipPath id="a"><path fill="#fff" d="M0 0h77v28H0z" style="fill:#fff;fill-opacity:1" transform="translate(4 4)"/></clipPath></defs></svg>